<svg width="416.9075439453125px" height="122.021240234375px" xmlns="http://www.w3.org/2000/svg" viewBox="41.546228027343744 13.9893798828125 416.9075439453125 122.021240234375" style="background: rgba(0, 0, 0, 0);" preserveAspectRatio="xMidYMid"><defs>
  <filter id="editing-scratch" x="-100%" y="-100%" width="300%" height="300%">
    <!-- COLOR -->
    <feFlood flood-color="#ddd" flood-opacity="0.75" result="COLOR-blu"></feFlood>
    <feFlood flood-color="#666" flood-opacity="0.4" result="COLOR-red"></feFlood>
    <!-- COLOR END -->

    <!-- Texture -->
    <feTurbulence baseFrequency=".05" type="fractalNoise" numOctaves="3" seed="0" result="Texture_10"></feTurbulence>
    <feColorMatrix type="matrix" values="0 0 0 0 0,
    0 0 0 0 0,
    0 0 0 0 0,
    0 0 0 -2.1 1.1" in="Texture_10" result="Texture_20"></feColorMatrix>

    <feColorMatrix result="Texture_30" type="matrix" values="0 0 0 0 0,
    0 0 0 0 0,
    0 0 0 0 0,
    0 0 0 -1.7 1.8" in="Texture_10"></feColorMatrix>
    <!-- Texture -->

    <!-- FILL -->
    <feOffset dx="-3" dy="4" in="SourceAlpha" result="FILL_10"></feOffset>
    <feDisplacementMap scale="17" in="FILL_10" in2="Texture_10" result="FILL_20"></feDisplacementMap>
    <feComposite operator="in" in="Texture_30" in2="FILL_20" result="FILL_40"></feComposite>
    <feComposite operator="in" in="COLOR-blu" in2="FILL_40" result="FILL_50"></feComposite>
    <!-- FILL END-->

    <!-- OUTLINE -->
    <feMorphology operator="dilate" radius="3" in="SourceGraphic" result="OUTLINE_10"></feMorphology>
    <feComposite operator="out" in="OUTLINE_10" in2="SourceGraphic" result="OUTLINE_20"></feComposite>
    <feDisplacementMap scale="7" in="OUTLINE_20" in2="Texture_10" result="OUTLINE_30"></feDisplacementMap>
    <feComposite operator="arithmetic" k2="-1" k3="1" in="Texture_20" in2="OUTLINE_30" result="OUTLINE_40"></feComposite>
    <!-- OUTLINE END-->

    <!-- BEVEL OUTLINE -->
    <feConvolveMatrix order="8,8" divisor="1" kernelMatrix="1 0 0 0 0 0 0 0 0 1 0 0 0 0 0 0 0 0 1 0 0 0 0 0 0 0 0 1 0 0 0 0 0 0 0 0 1 0 0 0 0 0 0 0 0 1 0 0 0 0 0 0 0 0 1 0 0 0 0 0 0 0 0 1 " in="SourceGraphic" result="BEVEL_10"></feConvolveMatrix>
    <feMorphology operator="dilate" radius="2" in="BEVEL_10" result="BEVEL_20"></feMorphology>
    <feComposite operator="out" in="BEVEL_20" in2="BEVEL_10" result="BEVEL_30"></feComposite>
    <feDisplacementMap scale="7" in="BEVEL_30" in2="Texture_10" result="BEVEL_40"></feDisplacementMap>
    <feComposite operator="arithmetic" k2="-1" k3="1" in="Texture_20" in2="BEVEL_40" result="BEVEL_50"></feComposite>
    <feOffset dx="-7" dy="-7" in="BEVEL_50" result="BEVEL_60"></feOffset>
    <feComposite operator="out" in="BEVEL_60" in2="OUTLINE_10" result="BEVEL_70"></feComposite>
    <!-- BEVEL OUTLINE END -->

    <!-- BEVEL FILL -->
    <feOffset dx="-9" dy="-9" in="BEVEL_10" result="BEVEL-FILL_10"></feOffset>
    <feComposite operator="out" in="BEVEL-FILL_10" in2="OUTLINE_10" result="BEVEL-FILL_20"></feComposite>
    <feDisplacementMap scale="17" in="BEVEL-FILL_20" in2="Texture_10" result="BEVEL-FILL_30"></feDisplacementMap>
    <feComposite operator="in" in="COLOR-red" in2="BEVEL-FILL_30" result="BEVEL-FILL_50"></feComposite> <!-- -->
    <!-- BEVEL FILL END-->

    <feMerge result="merge2">
     <feMergeNode in="BEVEL-FILL_50"></feMergeNode>
     <feMergeNode in="BEVEL_70"></feMergeNode>
     <feMergeNode in="FILL_50"></feMergeNode>
      <feMergeNode in="OUTLINE_40"></feMergeNode>
    </feMerge>
  </filter>
</defs>
<g filter="url(#editing-scratch)"><g transform="translate(104.46500062942505, 98.67218780517578)"><path d="M3.87-1.92L3.87-1.92L3.87-1.92Q2.37-3.58 1.70-6.21L1.70-6.21L1.70-6.21Q1.02-8.83 1.02-13.12L1.02-13.12L1.02-13.12Q1.02-17.41 2.50-21.31L2.50-21.31L2.50-21.31Q3.97-25.22 6.66-28.03L6.66-28.03L6.66-28.03Q12.16-33.92 21.25-33.92L21.25-33.92L21.25-33.92Q24.51-33.92 26.88-32.83L26.88-32.83L37.82-33.92L33.09-8.96L33.09-8.96Q32.90-8.19 32.90-6.78L32.90-6.78L32.90-6.78Q32.90-5.38 33.76-4.48L33.76-4.48L33.76-4.48Q34.62-3.58 35.90-3.46L35.90-3.46L35.90-3.46Q35.26-1.28 32.93 0L32.93 0L32.93 0Q30.59 1.28 27.97 1.28L27.97 1.28L27.97 1.28Q25.34 1.28 23.58 0.29L23.58 0.29L23.58 0.29Q21.82-0.70 21.31-2.37L21.31-2.37L21.31-2.37Q20.29-0.77 18.11 0.26L18.11 0.26L18.11 0.26Q15.94 1.28 13.02 1.28L13.02 1.28L13.02 1.28Q10.11 1.28 7.74 0.51L7.74 0.51L7.74 0.51Q5.38-0.26 3.87-1.92ZM17.38-27.90L17.38-27.90L17.38-27.90Q16.64-26.75 16-24.80L16-24.80L16-24.80Q15.36-22.85 14.30-17.63L14.30-17.63L14.30-17.63Q13.25-12.42 13.25-8.70L13.25-8.70L13.25-8.70Q13.25-4.99 13.82-3.90L13.82-3.90L13.82-3.90Q14.40-2.82 15.42-2.82L15.42-2.82L15.42-2.82Q17.47-2.82 18.98-4.77L18.98-4.77L18.98-4.77Q20.48-6.72 21.06-10.18L21.06-10.18L24.45-28.93L24.45-28.93Q23.10-30.08 21.54-30.08L21.54-30.08L21.54-30.08Q19.97-30.08 19.04-29.57L19.04-29.57L19.04-29.57Q18.11-29.06 17.38-27.90ZM87.36 1.28L87.36 1.28L87.36 1.28Q79.62 1.28 79.62-4.74L79.62-4.74L79.62-4.74Q79.62-7.36 80.74-12.45L80.74-12.45L80.74-12.45Q81.86-17.54 82.24-19.58L82.24-19.58L82.24-19.58Q83.14-24.26 83.14-25.73L83.14-25.73L83.14-25.73Q83.14-28.99 80.70-28.99L80.70-28.99L80.70-28.99Q79.10-28.99 77.57-26.78L77.57-26.78L77.57-26.78Q76.03-24.58 75.33-20.16L75.33-20.16L71.36 0L58.88 1.28L62.34-16.13L62.34-16.13Q62.91-19.01 63.42-22.27L63.42-22.27L63.42-22.27Q63.94-25.54 63.94-26.05L63.94-26.05L63.94-26.05Q63.94-28.99 61.76-28.99L61.76-28.99L61.76-28.99Q60.29-28.99 58.69-26.82L58.69-26.82L58.69-26.82Q57.09-24.64 56.19-20.16L56.19-20.16L52.29 0L39.68 1.28L46.40-32.64L56.83-33.92L55.74-27.46L55.74-27.46Q57.41-30.91 60.48-32.42L60.48-32.42L60.48-32.42Q63.55-33.92 68.35-33.92L68.35-33.92L68.35-33.92Q71.10-33.92 72.90-32.58L72.90-32.58L72.90-32.58Q74.69-31.23 75.26-29.06L75.26-29.06L75.26-29.06Q76.35-31.30 79.14-32.61L79.14-32.61L79.14-32.61Q81.92-33.92 85.34-33.92L85.34-33.92L85.34-33.92Q88.77-33.92 90.46-33.18L90.46-33.18L90.46-33.18Q92.16-32.45 93.18-31.23L93.18-31.23L93.18-31.23Q94.91-28.99 94.91-24.90L94.91-24.90L94.91-24.90Q94.91-20.86 93.18-12.48L93.18-12.48L93.18-12.48Q92.29-8.38 92.29-6.88L92.29-6.88L92.29-6.88Q92.29-5.38 93.15-4.48L93.15-4.48L93.15-4.48Q94.02-3.58 95.30-3.46L95.30-3.46L95.30-3.46Q94.66-1.28 92.45 0L92.45 0L92.45 0Q90.24 1.28 87.36 1.28ZM103.01-1.92L103.01-1.92L103.01-1.92Q101.50-3.58 100.83-6.21L100.83-6.21L100.83-6.21Q100.16-8.83 100.16-13.12L100.16-13.12L100.16-13.12Q100.16-17.41 101.63-21.31L101.63-21.31L101.63-21.31Q103.10-25.22 105.79-28.03L105.79-28.03L105.79-28.03Q111.30-33.92 120.38-33.92L120.38-33.92L120.38-33.92Q123.65-33.92 126.02-32.83L126.02-32.83L136.96-33.92L132.22-8.96L132.22-8.96Q132.03-8.19 132.03-6.78L132.03-6.78L132.03-6.78Q132.03-5.38 132.90-4.48L132.90-4.48L132.90-4.48Q133.76-3.58 135.04-3.46L135.04-3.46L135.04-3.46Q134.40-1.28 132.06 0L132.06 0L132.06 0Q129.73 1.28 127.10 1.28L127.10 1.28L127.10 1.28Q124.48 1.28 122.72 0.29L122.72 0.29L122.72 0.29Q120.96-0.70 120.45-2.37L120.45-2.37L120.45-2.37Q119.42-0.77 117.25 0.26L117.25 0.26L117.25 0.26Q115.07 1.28 112.16 1.28L112.16 1.28L112.16 1.28Q109.25 1.28 106.88 0.51L106.88 0.51L106.88 0.51Q104.51-0.26 103.01-1.92ZM116.51-27.90L116.51-27.90L116.51-27.90Q115.78-26.75 115.14-24.80L115.14-24.80L115.14-24.80Q114.50-22.85 113.44-17.63L113.44-17.63L113.44-17.63Q112.38-12.42 112.38-8.70L112.38-8.70L112.38-8.70Q112.38-4.99 112.96-3.90L112.96-3.90L112.96-3.90Q113.54-2.82 114.56-2.82L114.56-2.82L114.56-2.82Q116.61-2.82 118.11-4.77L118.11-4.77L118.11-4.77Q119.62-6.72 120.19-10.18L120.19-10.18L123.58-28.93L123.58-28.93Q122.24-30.08 120.67-30.08L120.67-30.08L120.67-30.08Q119.10-30.08 118.18-29.57L118.18-29.57L118.18-29.57Q117.25-29.06 116.51-27.90ZM160.45-17.98L160.45-17.98L160.45-17.98Q162.75-22.08 162.75-26.24L162.75-26.24L162.75-26.24Q162.75-28.99 160.77-28.99L160.77-28.99L160.77-28.99Q159.23-28.99 157.63-26.37L157.63-26.37L157.63-26.37Q155.97-23.74 155.46-20.35L155.46-20.35L152.13 0L138.88 1.28L145.41-32.64L155.97-33.92L154.82-27.46L154.82-27.46Q157.95-33.92 164.99-33.92L164.99-33.92L164.99-33.92Q168.70-33.92 170.72-32L170.72-32L170.72-32Q172.74-30.08 172.74-26.14L172.74-26.14L172.74-26.14Q172.74-22.21 170.14-19.71L170.14-19.71L170.14-19.71Q167.55-17.22 163.14-17.22L163.14-17.22L163.14-17.22Q161.22-17.22 160.45-17.98ZM194.30-2.69L194.30-2.69L194.30-2.69Q191.23 1.28 183.62 1.28L183.62 1.28L183.62 1.28Q179.65 1.28 176.77-1.12L176.77-1.12L176.77-1.12Q173.89-3.52 173.89-6.98L173.89-6.98L173.89-6.98Q173.89-8.90 174.08-9.86L174.08-9.86L178.37-32.64L191.36-33.92L186.69-9.22L186.69-9.22Q186.43-7.81 186.43-6.98L186.43-6.98L186.43-6.98Q186.43-3.26 188.67-3.26L188.67-3.26L188.67-3.26Q191.17-3.26 192.96-6.66L192.96-6.66L192.96-6.66Q193.54-7.74 193.79-9.15L193.79-9.15L198.34-32.64L210.94-33.92L206.21-8.96L206.21-8.96Q206.02-8 206.02-6.98L206.02-6.98L206.02-6.98Q206.02-5.95 206.59-4.83L206.59-4.83L206.59-4.83Q207.17-3.71 209.02-3.46L209.02-3.46L209.02-3.46Q208.64-1.92 207.30-0.90L207.30-0.90L207.30-0.90Q204.48 1.28 201.44 1.28L201.44 1.28L201.44 1.28Q198.40 1.28 196.61 0.19L196.61 0.19L196.61 0.19Q194.82-0.90 194.30-2.69ZM216.93-1.92L216.93-1.92L216.93-1.92Q215.42-3.58 214.75-6.21L214.75-6.21L214.75-6.21Q214.08-8.83 214.08-13.12L214.08-13.12L214.08-13.12Q214.08-17.41 215.55-21.31L215.55-21.31L215.55-21.31Q217.02-25.22 219.71-28.03L219.71-28.03L219.71-28.03Q225.22-33.92 234.30-33.92L234.30-33.92L234.30-33.92Q237.57-33.92 239.94-32.83L239.94-32.83L250.88-33.92L246.14-8.96L246.14-8.96Q245.95-8.19 245.95-6.78L245.95-6.78L245.95-6.78Q245.95-5.38 246.82-4.48L246.82-4.48L246.82-4.48Q247.68-3.58 248.96-3.46L248.96-3.46L248.96-3.46Q248.32-1.28 245.98 0L245.98 0L245.98 0Q243.65 1.28 241.02 1.28L241.02 1.28L241.02 1.28Q238.40 1.28 236.64 0.29L236.64 0.29L236.64 0.29Q234.88-0.70 234.37-2.37L234.37-2.37L234.37-2.37Q233.34-0.77 231.17 0.26L231.17 0.26L231.17 0.26Q228.99 1.28 226.08 1.28L226.08 1.28L226.08 1.28Q223.17 1.28 220.80 0.51L220.80 0.51L220.80 0.51Q218.43-0.26 216.93-1.92ZM230.43-27.90L230.43-27.90L230.43-27.90Q229.70-26.75 229.06-24.80L229.06-24.80L229.06-24.80Q228.42-22.85 227.36-17.63L227.36-17.63L227.36-17.63Q226.30-12.42 226.30-8.70L226.30-8.70L226.30-8.70Q226.30-4.99 226.88-3.90L226.88-3.90L226.88-3.90Q227.46-2.82 228.48-2.82L228.48-2.82L228.48-2.82Q230.53-2.82 232.03-4.77L232.03-4.77L232.03-4.77Q233.54-6.72 234.11-10.18L234.11-10.18L237.50-28.93L237.50-28.93Q236.16-30.08 234.59-30.08L234.59-30.08L234.59-30.08Q233.02-30.08 232.10-29.57L232.10-29.57L232.10-29.57Q231.17-29.06 230.43-27.90ZM270.85-30.34L270.85-30.34L270.85-30.34Q274.30-33.92 281.60-33.92L281.60-33.92L281.60-33.92Q285.63-33.92 287.84-31.78L287.84-31.78L287.84-31.78Q290.05-29.63 290.05-25.70L290.05-25.70L290.05-25.70Q290.05-21.76 287.84-18.98L287.84-18.98L287.84-18.98Q285.63-16.19 281.54-15.04L281.54-15.04L281.54-15.04Q281.86-13.76 282.30-12.42L282.30-12.42L283.20-9.86L283.20-9.86Q284.42-6.59 285.38-5.44L285.38-5.44L285.38-5.44Q286.34-4.29 287.62-3.90L287.62-3.90L287.62-3.90Q286.91-1.28 284.35 0.13L284.35 0.13L284.35 0.13Q282.30 1.28 279.49 1.28L279.49 1.28L279.49 1.28Q271.23 1.28 270.14-11.46L270.14-11.46L270.14-11.46Q269.95-13.25 269.95-15.04L269.95-15.04L269.95-15.04Q273.15-15.94 275.39-18.94L275.39-18.94L275.39-18.94Q277.63-21.95 277.63-25.47L277.63-25.47L277.63-25.47Q277.63-28.99 275.14-28.99L275.14-28.99L275.14-28.99Q273.34-28.99 271.94-27.01L271.94-27.01L271.94-27.01Q270.53-25.02 269.89-21.63L269.89-21.63L265.66 0L252.74 1.28L261.70-44.80L274.56-46.08L273.09-38.46L273.09-38.46Q272.13-33.09 270.85-30.34Z" fill="#000"></path></g></g><style>text {
  font-size: 64px;
  font-family: Arial Black;
  dominant-baseline: central;
  text-anchor: middle;
}</style></svg>